<svg width="2000" height="2000" viewBox="0 0 2000 2000" fill="none" xmlns="http://www.w3.org/2000/svg">
<rect width="2000" height="2000" fill="white"/>
<path fill-rule="evenodd" clip-rule="evenodd" d="M500.494 832L463.231 882.394V923.189L436 960.384L443.166 1015.58L474.697 971.183H500.494V832ZM500.494 832L537.758 882.394V923.189L564.989 960.384L557.823 1015.58L526.292 971.183H500.494V832Z" fill="#111111"/>
<path d="M585.659 1045.42V1062.12H586.374C596.39 1048.44 609.427 1041.61 625.484 1041.61C639.316 1041.61 649.888 1045.82 657.202 1054.25C664.515 1062.67 668.171 1074.04 668.171 1088.35V1167.05H623.099V1099.32C623.099 1085.33 617.455 1078.33 606.168 1078.33C600.603 1078.33 596.152 1080.56 592.813 1085.01C589.474 1089.3 587.805 1094.79 587.805 1101.47V1167.05H542.733V1045.42H585.659ZM726.322 1045.42V1062.12H727.038C737.054 1048.44 750.09 1041.61 766.148 1041.61C779.98 1041.61 790.552 1045.82 797.865 1054.25C805.179 1062.67 808.835 1074.04 808.835 1088.35V1167.05H763.763V1099.32C763.763 1085.33 758.119 1078.33 746.831 1078.33C741.267 1078.33 736.815 1080.56 733.477 1085.01C730.138 1089.3 728.469 1094.79 728.469 1101.47V1167.05H683.397V1045.42H726.322ZM853.687 1167.05L811.954 1045.42H858.695L872.527 1092.17L880.397 1121.5H880.874C883.894 1110.21 886.597 1100.43 888.982 1092.17L902.813 1045.42H948.124L906.391 1167.05H853.687ZM1059.76 1152.74C1047.67 1164.82 1031.62 1170.86 1011.58 1170.86C991.553 1170.86 975.416 1164.82 963.174 1152.74C950.932 1140.66 944.811 1125.23 944.811 1106.47C944.811 1087.71 950.932 1072.29 963.174 1060.21C975.416 1047.97 991.553 1041.85 1011.58 1041.85C1031.62 1041.85 1047.67 1047.97 1059.76 1060.21C1071.84 1072.29 1077.88 1087.71 1077.88 1106.47C1077.88 1125.23 1071.84 1140.66 1059.76 1152.74ZM1011.11 1140.81C1017.94 1140.81 1023.11 1137.71 1026.61 1131.51C1030.27 1125.31 1032.09 1116.97 1032.09 1106.47C1032.09 1095.98 1030.27 1087.63 1026.61 1081.43C1023.11 1075.23 1017.94 1072.13 1011.11 1072.13C1004.43 1072.13 999.343 1075.23 995.845 1081.43C992.348 1087.48 990.599 1095.82 990.599 1106.47C990.599 1117.13 992.348 1125.55 995.845 1131.75C999.343 1137.79 1004.43 1140.81 1011.11 1140.81ZM1167.07 1167.05L1142.74 1123.41L1133.44 1133.66V1167.05H1089.09V996.537H1133.44V1081.67L1162.77 1045.42H1213.33L1172.79 1090.26L1218.1 1167.05H1167.07ZM1276.84 1170.39C1257.12 1170.39 1241.07 1164.34 1228.67 1152.26C1216.42 1140.18 1210.3 1124.76 1210.3 1106C1210.3 1087.4 1216.34 1071.97 1228.43 1059.73C1240.51 1047.49 1256.09 1041.37 1275.17 1041.37C1293.13 1041.37 1308.08 1046.86 1320 1057.82C1334.63 1071.34 1341.7 1091.13 1341.23 1117.21H1254.42C1257.28 1132.31 1265.23 1139.86 1278.27 1139.86C1286.22 1139.86 1291.86 1136.84 1295.2 1130.8H1338.84C1336.14 1142.25 1328.43 1152.02 1315.71 1160.13C1305.06 1166.97 1292.1 1170.39 1276.84 1170.39ZM1276.12 1071.66C1264.2 1071.66 1256.96 1078.89 1254.42 1093.36H1296.39C1295.44 1086.52 1293.13 1081.2 1289.48 1077.38C1285.98 1073.56 1281.53 1071.66 1276.12 1071.66ZM1343.71 1072.61V1045.42H1359.45V1006.08H1403.57V1045.42H1426.7V1072.61H1403.57V1121.98C1403.57 1125.79 1404.45 1128.65 1406.19 1130.56C1408.1 1132.47 1410.72 1133.5 1414.06 1133.66C1417.4 1133.82 1421.46 1133.74 1426.23 1133.42V1166.57C1418.28 1168.48 1410.88 1169.43 1404.05 1169.43C1388.63 1169.43 1377.34 1166.73 1370.18 1161.32C1363.03 1155.76 1359.45 1145.98 1359.45 1131.99V1072.61H1343.71Z" fill="#111111"/>
<path d="M475.088 1168V996.047H526.088V1168H475.088Z" fill="url(#paint0_linear_158_41)"/>
<g style="mix-blend-mode:overlay" filter="url(#filter0_f_158_41)">
<line x1="481.955" y1="999" x2="481.955" y2="1076" stroke="#111111" stroke-width="3.91003"/>
</g>
<g style="mix-blend-mode:overlay" filter="url(#filter1_f_158_41)">
<line x1="485.955" y1="1106" x2="485.955" y2="1149" stroke="#111111" stroke-width="3.91003"/>
</g>
<g style="mix-blend-mode:overlay" filter="url(#filter2_f_158_41)">
<line x1="512.955" y1="1119" x2="512.955" y2="1162" stroke="#111111" stroke-width="3.91003"/>
</g>
<g style="mix-blend-mode:overlay" filter="url(#filter3_f_158_41)">
<line x1="498.955" y1="1034" x2="498.955" y2="1112" stroke="#111111" stroke-width="3.91003"/>
</g>
<g style="mix-blend-mode:overlay" filter="url(#filter4_f_158_41)">
<line x1="516.955" y1="999" x2="516.955" y2="1076" stroke="#111111" stroke-width="3.91003"/>
</g>
<path d="M607.4 1236V1208H616.9C618.393 1208 619.74 1208.37 620.94 1209.1C622.14 1209.82 623.093 1210.8 623.8 1212.04C624.507 1213.27 624.86 1214.65 624.86 1216.18C624.86 1217.55 624.58 1218.8 624.02 1219.92C623.46 1221.04 622.693 1221.97 621.72 1222.7C620.76 1223.43 619.673 1223.92 618.46 1224.16L625.3 1236H622.06L615.32 1224.38H610.2V1236H607.4ZM610.2 1221.58H616.66C617.647 1221.58 618.547 1221.34 619.36 1220.86C620.187 1220.37 620.84 1219.71 621.32 1218.88C621.813 1218.04 622.06 1217.09 622.06 1216.04C622.06 1214.99 621.813 1214.05 621.32 1213.22C620.84 1212.38 620.187 1211.72 619.36 1211.24C618.547 1210.75 617.647 1210.5 616.66 1210.5H610.2V1221.58ZM637.763 1236.52C635.923 1236.52 634.243 1236.05 632.723 1235.1C631.216 1234.15 630.009 1232.89 629.103 1231.3C628.209 1229.7 627.763 1227.93 627.763 1226C627.763 1224.53 628.023 1223.17 628.543 1221.9C629.063 1220.62 629.776 1219.5 630.683 1218.54C631.603 1217.57 632.669 1216.81 633.883 1216.26C635.096 1215.71 636.389 1215.44 637.763 1215.44C639.603 1215.44 641.276 1215.91 642.783 1216.86C644.303 1217.81 645.509 1219.08 646.403 1220.68C647.309 1222.28 647.763 1224.05 647.763 1226C647.763 1227.45 647.503 1228.81 646.983 1230.08C646.463 1231.35 645.743 1232.47 644.823 1233.44C643.916 1234.4 642.856 1235.15 641.643 1235.7C640.443 1236.25 639.149 1236.52 637.763 1236.52ZM637.763 1233.72C639.123 1233.72 640.343 1233.37 641.423 1232.66C642.516 1231.94 643.376 1230.99 644.003 1229.82C644.643 1228.65 644.963 1227.37 644.963 1226C644.963 1224.6 644.643 1223.31 644.003 1222.14C643.363 1220.95 642.496 1220.01 641.403 1219.3C640.323 1218.59 639.109 1218.24 637.763 1218.24C636.403 1218.24 635.176 1218.6 634.083 1219.32C633.003 1220.03 632.143 1220.97 631.503 1222.14C630.876 1223.31 630.563 1224.6 630.563 1226C630.563 1227.44 630.889 1228.75 631.543 1229.92C632.196 1231.08 633.069 1232.01 634.163 1232.7C635.256 1233.38 636.456 1233.72 637.763 1233.72ZM665.235 1230.98L667.735 1232.34C666.828 1233.61 665.675 1234.62 664.275 1235.38C662.888 1236.14 661.381 1236.52 659.755 1236.52C657.915 1236.52 656.235 1236.05 654.715 1235.1C653.208 1234.15 652.001 1232.89 651.095 1231.3C650.201 1229.7 649.755 1227.93 649.755 1226C649.755 1224.53 650.015 1223.17 650.535 1221.9C651.055 1220.62 651.768 1219.5 652.675 1218.54C653.595 1217.57 654.661 1216.81 655.875 1216.26C657.088 1215.71 658.381 1215.44 659.755 1215.44C661.381 1215.44 662.888 1215.82 664.275 1216.58C665.675 1217.34 666.828 1218.36 667.735 1219.64L665.235 1220.98C664.541 1220.1 663.708 1219.43 662.735 1218.96C661.761 1218.48 660.768 1218.24 659.755 1218.24C658.408 1218.24 657.188 1218.6 656.095 1219.32C655.001 1220.03 654.135 1220.97 653.495 1222.14C652.868 1223.31 652.555 1224.6 652.555 1226C652.555 1227.4 652.875 1228.69 653.515 1229.86C654.168 1231.03 655.041 1231.97 656.135 1232.68C657.228 1233.37 658.435 1233.72 659.755 1233.72C660.848 1233.72 661.875 1233.47 662.835 1232.96C663.795 1232.45 664.595 1231.79 665.235 1230.98ZM686.692 1236H683.472L677.872 1226.34L673.872 1231.12V1236H671.072V1206H673.872V1226.76L682.892 1216H686.552L679.772 1224.06L686.692 1236ZM697.997 1236.52C696.157 1236.52 694.477 1236.05 692.957 1235.1C691.45 1234.15 690.244 1232.89 689.337 1231.3C688.444 1229.7 687.997 1227.93 687.997 1226C687.997 1224.53 688.257 1223.17 688.777 1221.9C689.297 1220.62 690.01 1219.5 690.917 1218.54C691.837 1217.57 692.904 1216.81 694.117 1216.26C695.33 1215.71 696.624 1215.44 697.997 1215.44C699.477 1215.44 700.837 1215.73 702.077 1216.32C703.33 1216.91 704.404 1217.73 705.297 1218.78C706.204 1219.83 706.884 1221.07 707.337 1222.48C707.804 1223.89 707.997 1225.42 707.917 1227.06H690.957C691.117 1228.33 691.517 1229.46 692.157 1230.46C692.81 1231.46 693.637 1232.25 694.637 1232.84C695.65 1233.41 696.77 1233.71 697.997 1233.72C699.33 1233.72 700.53 1233.37 701.597 1232.68C702.677 1231.99 703.544 1231.03 704.197 1229.82L707.037 1230.48C706.237 1232.25 705.03 1233.71 703.417 1234.84C701.804 1235.96 699.997 1236.52 697.997 1236.52ZM690.877 1224.8H705.097C705.004 1223.56 704.624 1222.43 703.957 1221.4C703.304 1220.36 702.457 1219.53 701.417 1218.92C700.377 1218.29 699.237 1217.98 697.997 1217.98C696.757 1217.98 695.624 1218.29 694.597 1218.9C693.57 1219.5 692.73 1220.32 692.077 1221.36C691.424 1222.39 691.024 1223.53 690.877 1224.8ZM721.214 1218.8H716.434L716.414 1236H713.614L713.634 1218.8H710.014V1216H713.634L713.614 1209.72H716.414L716.434 1216H721.214V1218.8ZM724.627 1216H727.427V1236H724.627V1216ZM726.047 1212.5C725.593 1212.5 725.207 1212.35 724.887 1212.06C724.58 1211.75 724.427 1211.37 724.427 1210.92C724.427 1210.47 724.58 1210.09 724.887 1209.8C725.207 1209.49 725.593 1209.34 726.047 1209.34C726.487 1209.34 726.86 1209.49 727.167 1209.8C727.487 1210.09 727.647 1210.47 727.647 1210.92C727.647 1211.37 727.493 1211.75 727.187 1212.06C726.88 1212.35 726.5 1212.5 726.047 1212.5ZM749.606 1223.62V1236H746.806V1224.18C746.806 1223.09 746.539 1222.09 746.006 1221.2C745.472 1220.31 744.759 1219.59 743.866 1219.06C742.972 1218.53 741.979 1218.26 740.886 1218.26C739.806 1218.26 738.812 1218.53 737.906 1219.06C737.012 1219.59 736.299 1220.31 735.766 1221.2C735.232 1222.09 734.966 1223.09 734.966 1224.18V1236H732.166V1216H734.966V1218.76C735.672 1217.75 736.592 1216.94 737.726 1216.34C738.859 1215.74 740.092 1215.44 741.426 1215.44C742.932 1215.44 744.306 1215.81 745.546 1216.54C746.786 1217.27 747.772 1218.26 748.506 1219.5C749.239 1220.74 749.606 1222.11 749.606 1223.62ZM769.12 1216H771.92V1236.74C771.92 1238.02 771.64 1239.22 771.08 1240.34C770.534 1241.46 769.787 1242.44 768.84 1243.28C767.907 1244.13 766.84 1244.8 765.64 1245.28C764.44 1245.76 763.194 1246 761.9 1246C760.514 1246 759.174 1245.68 757.88 1245.04C756.587 1244.41 755.46 1243.57 754.5 1242.52C753.554 1241.47 752.88 1240.3 752.48 1239.02L755.06 1237.84C755.314 1238.84 755.787 1239.74 756.48 1240.54C757.187 1241.35 758.014 1241.99 758.96 1242.46C759.92 1242.94 760.9 1243.18 761.9 1243.18C762.82 1243.18 763.707 1243.01 764.56 1242.66C765.427 1242.33 766.2 1241.87 766.88 1241.28C767.574 1240.69 768.12 1240.01 768.52 1239.22C768.92 1238.45 769.12 1237.62 769.12 1236.74V1232.32C768.427 1233.57 767.487 1234.59 766.3 1235.36C765.127 1236.13 763.76 1236.52 762.2 1236.52C760.8 1236.52 759.48 1236.25 758.24 1235.7C757.014 1235.15 755.934 1234.4 755 1233.44C754.067 1232.47 753.334 1231.35 752.8 1230.08C752.28 1228.81 752.02 1227.45 752.02 1226C752.02 1224.55 752.28 1223.19 752.8 1221.92C753.334 1220.64 754.067 1219.52 755 1218.56C755.934 1217.59 757.014 1216.83 758.24 1216.28C759.48 1215.73 760.8 1215.46 762.2 1215.46C763.76 1215.46 765.127 1215.85 766.3 1216.62C767.487 1217.38 768.427 1218.39 769.12 1219.66V1216ZM762.22 1233.8C763.607 1233.8 764.8 1233.44 765.8 1232.72C766.814 1232 767.594 1231.05 768.14 1229.86C768.687 1228.67 768.96 1227.39 768.96 1226C768.96 1224.57 768.68 1223.27 768.12 1222.1C767.574 1220.91 766.794 1219.97 765.78 1219.26C764.767 1218.54 763.58 1218.18 762.22 1218.18C760.86 1218.18 759.62 1218.53 758.5 1219.24C757.394 1219.93 756.514 1220.87 755.86 1222.06C755.207 1223.25 754.88 1224.56 754.88 1226C754.88 1227.44 755.214 1228.75 755.88 1229.94C756.547 1231.11 757.434 1232.05 758.54 1232.76C759.66 1233.45 760.887 1233.8 762.22 1233.8ZM803.505 1208H806.805L797.365 1223.32V1236H794.565V1223.32L785.145 1208H788.445L795.965 1220.26L803.505 1208ZM816.005 1236.52C814.165 1236.52 812.485 1236.05 810.965 1235.1C809.458 1234.15 808.251 1232.89 807.345 1231.3C806.451 1229.7 806.005 1227.93 806.005 1226C806.005 1224.53 806.265 1223.17 806.785 1221.9C807.305 1220.62 808.018 1219.5 808.925 1218.54C809.845 1217.57 810.911 1216.81 812.125 1216.26C813.338 1215.71 814.631 1215.44 816.005 1215.44C817.845 1215.44 819.518 1215.91 821.025 1216.86C822.545 1217.81 823.751 1219.08 824.645 1220.68C825.551 1222.28 826.005 1224.05 826.005 1226C826.005 1227.45 825.745 1228.81 825.225 1230.08C824.705 1231.35 823.985 1232.47 823.065 1233.44C822.158 1234.4 821.098 1235.15 819.885 1235.7C818.685 1236.25 817.391 1236.52 816.005 1236.52ZM816.005 1233.72C817.365 1233.72 818.585 1233.37 819.665 1232.66C820.758 1231.94 821.618 1230.99 822.245 1229.82C822.885 1228.65 823.205 1227.37 823.205 1226C823.205 1224.6 822.885 1223.31 822.245 1222.14C821.605 1220.95 820.738 1220.01 819.645 1219.3C818.565 1218.59 817.351 1218.24 816.005 1218.24C814.645 1218.24 813.418 1218.6 812.325 1219.32C811.245 1220.03 810.385 1220.97 809.745 1222.14C809.118 1223.31 808.805 1224.6 808.805 1226C808.805 1227.44 809.131 1228.75 809.785 1229.92C810.438 1231.08 811.311 1232.01 812.405 1232.7C813.498 1233.38 814.698 1233.72 816.005 1233.72ZM828.397 1228.34V1216H831.197V1227.78C831.197 1228.87 831.464 1229.87 831.997 1230.76C832.53 1231.65 833.244 1232.37 834.137 1232.9C835.044 1233.43 836.037 1233.7 837.117 1233.7C838.21 1233.7 839.197 1233.43 840.077 1232.9C840.97 1232.37 841.684 1231.65 842.217 1230.76C842.75 1229.87 843.017 1228.87 843.017 1227.78V1216H845.817L845.837 1236H843.037L843.017 1233.2C842.31 1234.21 841.39 1235.02 840.257 1235.62C839.137 1236.22 837.91 1236.52 836.577 1236.52C835.07 1236.52 833.697 1236.15 832.457 1235.42C831.217 1234.69 830.23 1233.7 829.497 1232.46C828.764 1231.22 828.397 1229.85 828.397 1228.34ZM849.822 1236V1216H852.622V1218.76C853.329 1217.75 854.249 1216.94 855.382 1216.34C856.515 1215.74 857.749 1215.44 859.082 1215.44C859.855 1215.44 860.602 1215.54 861.322 1215.74L860.182 1218.52C859.622 1218.35 859.075 1218.26 858.542 1218.26C857.462 1218.26 856.469 1218.53 855.562 1219.06C854.669 1219.59 853.955 1220.31 853.422 1221.2C852.889 1222.09 852.622 1223.09 852.622 1224.18V1236H849.822ZM873.728 1236V1208H882.988C884.921 1208 886.735 1208.37 888.428 1209.1C890.121 1209.82 891.608 1210.83 892.888 1212.12C894.168 1213.4 895.168 1214.89 895.888 1216.58C896.621 1218.26 896.988 1220.07 896.988 1222C896.988 1223.93 896.621 1225.75 895.888 1227.44C895.168 1229.12 894.168 1230.61 892.888 1231.9C891.608 1233.18 890.121 1234.19 888.428 1234.92C886.735 1235.64 884.921 1236 882.988 1236H873.728ZM876.528 1233.2H882.988C884.535 1233.2 885.981 1232.91 887.328 1232.34C888.688 1231.75 889.881 1230.95 890.908 1229.92C891.935 1228.89 892.735 1227.71 893.308 1226.36C893.895 1225 894.188 1223.55 894.188 1222C894.188 1220.45 893.895 1219.01 893.308 1217.66C892.735 1216.3 891.928 1215.11 890.888 1214.08C889.861 1213.05 888.675 1212.25 887.328 1211.68C885.981 1211.09 884.535 1210.8 882.988 1210.8H876.528V1233.2ZM900.447 1216H903.247V1236H900.447V1216ZM901.867 1212.5C901.414 1212.5 901.027 1212.35 900.707 1212.06C900.4 1211.75 900.247 1211.37 900.247 1210.92C900.247 1210.47 900.4 1210.09 900.707 1209.8C901.027 1209.49 901.414 1209.34 901.867 1209.34C902.307 1209.34 902.68 1209.49 902.987 1209.8C903.307 1210.09 903.467 1210.47 903.467 1210.92C903.467 1211.37 903.314 1211.75 903.007 1212.06C902.7 1212.35 902.32 1212.5 901.867 1212.5ZM923.769 1216H926.569V1236.74C926.569 1238.02 926.289 1239.22 925.729 1240.34C925.182 1241.46 924.435 1242.44 923.489 1243.28C922.555 1244.13 921.489 1244.8 920.289 1245.28C919.089 1245.76 917.842 1246 916.549 1246C915.162 1246 913.822 1245.68 912.529 1245.04C911.235 1244.41 910.109 1243.57 909.149 1242.52C908.202 1241.47 907.529 1240.3 907.129 1239.02L909.709 1237.84C909.962 1238.84 910.435 1239.74 911.129 1240.54C911.835 1241.35 912.662 1241.99 913.609 1242.46C914.569 1242.94 915.549 1243.18 916.549 1243.18C917.469 1243.18 918.355 1243.01 919.209 1242.66C920.075 1242.33 920.849 1241.87 921.529 1241.28C922.222 1240.69 922.769 1240.01 923.169 1239.22C923.569 1238.45 923.769 1237.62 923.769 1236.74V1232.32C923.075 1233.57 922.135 1234.59 920.949 1235.36C919.775 1236.13 918.409 1236.52 916.849 1236.52C915.449 1236.52 914.129 1236.25 912.889 1235.7C911.662 1235.15 910.582 1234.4 909.649 1233.44C908.715 1232.47 907.982 1231.35 907.449 1230.08C906.929 1228.81 906.669 1227.45 906.669 1226C906.669 1224.55 906.929 1223.19 907.449 1221.92C907.982 1220.64 908.715 1219.52 909.649 1218.56C910.582 1217.59 911.662 1216.83 912.889 1216.28C914.129 1215.73 915.449 1215.46 916.849 1215.46C918.409 1215.46 919.775 1215.85 920.949 1216.62C922.135 1217.38 923.075 1218.39 923.769 1219.66V1216ZM916.869 1233.8C918.255 1233.8 919.449 1233.44 920.449 1232.72C921.462 1232 922.242 1231.05 922.789 1229.86C923.335 1228.67 923.609 1227.39 923.609 1226C923.609 1224.57 923.329 1223.27 922.769 1222.1C922.222 1220.91 921.442 1219.97 920.429 1219.26C919.415 1218.54 918.229 1218.18 916.869 1218.18C915.509 1218.18 914.269 1218.53 913.149 1219.24C912.042 1219.93 911.162 1220.87 910.509 1222.06C909.855 1223.25 909.529 1224.56 909.529 1226C909.529 1227.44 909.862 1228.75 910.529 1229.94C911.195 1231.11 912.082 1232.05 913.189 1232.76C914.309 1233.45 915.535 1233.8 916.869 1233.8ZM931.189 1216H933.989V1236H931.189V1216ZM932.609 1212.5C932.156 1212.5 931.769 1212.35 931.449 1212.06C931.142 1211.75 930.989 1211.37 930.989 1210.92C930.989 1210.47 931.142 1210.09 931.449 1209.8C931.769 1209.49 932.156 1209.34 932.609 1209.34C933.049 1209.34 933.422 1209.49 933.729 1209.8C934.049 1210.09 934.209 1210.47 934.209 1210.92C934.209 1211.37 934.056 1211.75 933.749 1212.06C933.442 1212.35 933.062 1212.5 932.609 1212.5ZM949.026 1218.8H944.246L944.226 1236H941.426L941.446 1218.8H937.826V1216H941.446L941.426 1209.72H944.226L944.246 1216H949.026V1218.8ZM968.488 1216H971.288V1236H968.488L968.388 1232.28C967.735 1233.55 966.822 1234.57 965.648 1235.36C964.475 1236.13 963.075 1236.52 961.448 1236.52C959.982 1236.52 958.608 1236.25 957.328 1235.7C956.048 1235.14 954.922 1234.37 953.948 1233.4C952.975 1232.43 952.215 1231.3 951.668 1230.02C951.122 1228.74 950.848 1227.37 950.848 1225.9C950.848 1224.46 951.115 1223.11 951.648 1221.84C952.195 1220.57 952.942 1219.46 953.888 1218.5C954.848 1217.54 955.955 1216.79 957.208 1216.26C958.475 1215.71 959.828 1215.44 961.268 1215.44C962.935 1215.44 964.388 1215.84 965.628 1216.64C966.868 1217.43 967.855 1218.46 968.588 1219.74L968.488 1216ZM961.388 1233.8C962.815 1233.8 964.042 1233.45 965.068 1232.76C966.095 1232.05 966.882 1231.11 967.428 1229.92C967.988 1228.73 968.268 1227.43 968.268 1226C968.268 1224.53 967.988 1223.21 967.428 1222.04C966.868 1220.85 966.075 1219.91 965.048 1219.22C964.022 1218.53 962.802 1218.18 961.388 1218.18C959.975 1218.18 958.682 1218.53 957.508 1219.24C956.348 1219.93 955.422 1220.87 954.728 1222.06C954.048 1223.25 953.708 1224.56 953.708 1226C953.708 1227.45 954.062 1228.77 954.768 1229.96C955.475 1231.13 956.408 1232.07 957.568 1232.76C958.742 1233.45 960.015 1233.8 961.388 1233.8ZM975.564 1236V1206H978.364V1236H975.564ZM1001.49 1236L991.331 1208H994.291L1003.17 1232.48L1012.09 1208H1015.05L1004.87 1236H1001.49ZM1016.97 1216H1019.77V1236H1016.97V1216ZM1018.39 1212.5C1017.94 1212.5 1017.55 1212.35 1017.23 1212.06C1016.92 1211.75 1016.77 1211.37 1016.77 1210.92C1016.77 1210.47 1016.92 1210.09 1017.23 1209.8C1017.55 1209.49 1017.94 1209.34 1018.39 1209.34C1018.83 1209.34 1019.2 1209.49 1019.51 1209.8C1019.83 1210.09 1019.99 1210.47 1019.99 1210.92C1019.99 1211.37 1019.84 1211.75 1019.53 1212.06C1019.22 1212.35 1018.84 1212.5 1018.39 1212.5ZM1030.61 1236.38C1029.52 1236.35 1028.45 1236.15 1027.41 1235.78C1026.37 1235.41 1025.46 1234.9 1024.69 1234.26C1023.92 1233.62 1023.36 1232.89 1023.03 1232.08L1025.45 1231.04C1025.66 1231.56 1026.06 1232.04 1026.63 1232.48C1027.22 1232.91 1027.88 1233.25 1028.63 1233.52C1029.38 1233.77 1030.12 1233.9 1030.85 1233.9C1031.66 1233.9 1032.42 1233.77 1033.13 1233.5C1033.84 1233.23 1034.41 1232.85 1034.85 1232.36C1035.3 1231.85 1035.53 1231.26 1035.53 1230.58C1035.53 1229.85 1035.29 1229.27 1034.81 1228.86C1034.33 1228.43 1033.72 1228.1 1032.99 1227.86C1032.26 1227.61 1031.5 1227.37 1030.73 1227.14C1029.32 1226.75 1028.07 1226.33 1026.99 1225.86C1025.91 1225.39 1025.06 1224.8 1024.45 1224.08C1023.85 1223.35 1023.55 1222.41 1023.55 1221.26C1023.55 1220.05 1023.89 1219 1024.57 1218.12C1025.26 1217.23 1026.16 1216.54 1027.27 1216.06C1028.39 1215.57 1029.58 1215.32 1030.85 1215.32C1032.48 1215.32 1033.96 1215.67 1035.29 1216.38C1036.64 1217.09 1037.61 1218.03 1038.21 1219.2L1035.95 1220.54C1035.71 1219.99 1035.33 1219.52 1034.81 1219.12C1034.29 1218.72 1033.7 1218.41 1033.03 1218.18C1032.38 1217.95 1031.71 1217.83 1031.03 1217.82C1030.18 1217.81 1029.38 1217.93 1028.65 1218.2C1027.92 1218.45 1027.32 1218.83 1026.87 1219.34C1026.43 1219.85 1026.21 1220.47 1026.21 1221.2C1026.21 1221.93 1026.43 1222.49 1026.87 1222.88C1027.31 1223.25 1027.9 1223.56 1028.65 1223.8C1029.41 1224.03 1030.26 1224.29 1031.21 1224.6C1032.42 1224.99 1033.56 1225.43 1034.63 1225.92C1035.7 1226.41 1036.56 1227.03 1037.21 1227.76C1037.86 1228.49 1038.18 1229.42 1038.17 1230.54C1038.17 1231.74 1037.81 1232.79 1037.09 1233.68C1036.37 1234.57 1035.44 1235.26 1034.29 1235.74C1033.14 1236.21 1031.92 1236.42 1030.61 1236.38ZM1041.42 1216H1044.22V1236H1041.42V1216ZM1042.84 1212.5C1042.39 1212.5 1042 1212.35 1041.68 1212.06C1041.38 1211.75 1041.22 1211.37 1041.22 1210.92C1041.22 1210.47 1041.38 1210.09 1041.68 1209.8C1042 1209.49 1042.39 1209.34 1042.84 1209.34C1043.28 1209.34 1043.66 1209.49 1043.96 1209.8C1044.28 1210.09 1044.44 1210.47 1044.44 1210.92C1044.44 1211.37 1044.29 1211.75 1043.98 1212.06C1043.68 1212.35 1043.3 1212.5 1042.84 1212.5ZM1057.65 1236.52C1055.81 1236.52 1054.13 1236.05 1052.61 1235.1C1051.1 1234.15 1049.89 1232.89 1048.99 1231.3C1048.09 1229.7 1047.65 1227.93 1047.65 1226C1047.65 1224.53 1047.91 1223.17 1048.43 1221.9C1048.95 1220.62 1049.66 1219.5 1050.57 1218.54C1051.49 1217.57 1052.55 1216.81 1053.77 1216.26C1054.98 1215.71 1056.27 1215.44 1057.65 1215.44C1059.49 1215.44 1061.16 1215.91 1062.67 1216.86C1064.19 1217.81 1065.39 1219.08 1066.29 1220.68C1067.19 1222.28 1067.65 1224.05 1067.65 1226C1067.65 1227.45 1067.39 1228.81 1066.87 1230.08C1066.35 1231.35 1065.63 1232.47 1064.71 1233.44C1063.8 1234.4 1062.74 1235.15 1061.53 1235.7C1060.33 1236.25 1059.03 1236.52 1057.65 1236.52ZM1057.65 1233.72C1059.01 1233.72 1060.23 1233.37 1061.31 1232.66C1062.4 1231.94 1063.26 1230.99 1063.89 1229.82C1064.53 1228.65 1064.85 1227.37 1064.85 1226C1064.85 1224.6 1064.53 1223.31 1063.89 1222.14C1063.25 1220.95 1062.38 1220.01 1061.29 1219.3C1060.21 1218.59 1058.99 1218.24 1057.65 1218.24C1056.29 1218.24 1055.06 1218.6 1053.97 1219.32C1052.89 1220.03 1052.03 1220.97 1051.39 1222.14C1050.76 1223.31 1050.45 1224.6 1050.45 1226C1050.45 1227.44 1050.77 1228.75 1051.43 1229.92C1052.08 1231.08 1052.95 1232.01 1054.05 1232.7C1055.14 1233.38 1056.34 1233.72 1057.65 1233.72ZM1088.47 1223.62V1236H1085.67V1224.18C1085.67 1223.09 1085.41 1222.09 1084.87 1221.2C1084.34 1220.31 1083.63 1219.59 1082.73 1219.06C1081.84 1218.53 1080.85 1218.26 1079.75 1218.26C1078.67 1218.26 1077.68 1218.53 1076.77 1219.06C1075.88 1219.59 1075.17 1220.31 1074.63 1221.2C1074.1 1222.09 1073.83 1223.09 1073.83 1224.18V1236H1071.03V1216H1073.83V1218.76C1074.54 1217.75 1075.46 1216.94 1076.59 1216.34C1077.73 1215.74 1078.96 1215.44 1080.29 1215.44C1081.8 1215.44 1083.17 1215.81 1084.41 1216.54C1085.65 1217.27 1086.64 1218.26 1087.37 1219.5C1088.11 1220.74 1088.47 1222.11 1088.47 1223.62ZM1112.31 1218.8H1107.53L1107.51 1236H1104.71L1104.73 1218.8H1101.11V1216H1104.73L1104.71 1209.72H1107.51L1107.53 1216H1112.31V1218.8ZM1124.13 1236.52C1122.29 1236.52 1120.61 1236.05 1119.09 1235.1C1117.58 1234.15 1116.38 1232.89 1115.47 1231.3C1114.58 1229.7 1114.13 1227.93 1114.13 1226C1114.13 1224.53 1114.39 1223.17 1114.91 1221.9C1115.43 1220.62 1116.14 1219.5 1117.05 1218.54C1117.97 1217.57 1119.04 1216.81 1120.25 1216.26C1121.46 1215.71 1122.76 1215.44 1124.13 1215.44C1125.97 1215.44 1127.64 1215.91 1129.15 1216.86C1130.67 1217.81 1131.88 1219.08 1132.77 1220.68C1133.68 1222.28 1134.13 1224.05 1134.13 1226C1134.13 1227.45 1133.87 1228.81 1133.35 1230.08C1132.83 1231.35 1132.11 1232.47 1131.19 1233.44C1130.28 1234.4 1129.22 1235.15 1128.01 1235.7C1126.81 1236.25 1125.52 1236.52 1124.13 1236.52ZM1124.13 1233.72C1125.49 1233.72 1126.71 1233.37 1127.79 1232.66C1128.88 1231.94 1129.74 1230.99 1130.37 1229.82C1131.01 1228.65 1131.33 1227.37 1131.33 1226C1131.33 1224.6 1131.01 1223.31 1130.37 1222.14C1129.73 1220.95 1128.86 1220.01 1127.77 1219.3C1126.69 1218.59 1125.48 1218.24 1124.13 1218.24C1122.77 1218.24 1121.54 1218.6 1120.45 1219.32C1119.37 1220.03 1118.51 1220.97 1117.87 1222.14C1117.24 1223.31 1116.93 1224.6 1116.93 1226C1116.93 1227.44 1117.26 1228.75 1117.91 1229.92C1118.56 1231.08 1119.44 1232.01 1120.53 1232.7C1121.62 1233.38 1122.82 1233.72 1124.13 1233.72ZM1147.32 1236V1208H1156.82C1158.32 1208 1159.66 1208.37 1160.86 1209.1C1162.06 1209.82 1163.02 1210.8 1163.72 1212.04C1164.43 1213.27 1164.78 1214.65 1164.78 1216.18C1164.78 1217.55 1164.5 1218.8 1163.94 1219.92C1163.38 1221.04 1162.62 1221.97 1161.64 1222.7C1160.68 1223.43 1159.6 1223.92 1158.38 1224.16L1165.22 1236H1161.98L1155.24 1224.38H1150.12V1236H1147.32ZM1150.12 1221.58H1156.58C1157.57 1221.58 1158.47 1221.34 1159.28 1220.86C1160.11 1220.37 1160.76 1219.71 1161.24 1218.88C1161.74 1218.04 1161.98 1217.09 1161.98 1216.04C1161.98 1214.99 1161.74 1214.05 1161.24 1213.22C1160.76 1212.38 1160.11 1211.72 1159.28 1211.24C1158.47 1210.75 1157.57 1210.5 1156.58 1210.5H1150.12V1221.58ZM1177.68 1236.52C1175.84 1236.52 1174.16 1236.05 1172.64 1235.1C1171.14 1234.15 1169.93 1232.89 1169.02 1231.3C1168.13 1229.7 1167.68 1227.93 1167.68 1226C1167.68 1224.53 1167.94 1223.17 1168.46 1221.9C1168.98 1220.62 1169.7 1219.5 1170.6 1218.54C1171.52 1217.57 1172.59 1216.81 1173.8 1216.26C1175.02 1215.71 1176.31 1215.44 1177.68 1215.44C1179.16 1215.44 1180.52 1215.73 1181.76 1216.32C1183.02 1216.91 1184.09 1217.73 1184.98 1218.78C1185.89 1219.83 1186.57 1221.07 1187.02 1222.48C1187.49 1223.89 1187.68 1225.42 1187.6 1227.06H1170.64C1170.8 1228.33 1171.2 1229.46 1171.84 1230.46C1172.5 1231.46 1173.32 1232.25 1174.32 1232.84C1175.34 1233.41 1176.46 1233.71 1177.68 1233.72C1179.02 1233.72 1180.22 1233.37 1181.28 1232.68C1182.36 1231.99 1183.23 1231.03 1183.88 1229.82L1186.72 1230.48C1185.92 1232.25 1184.72 1233.71 1183.1 1234.84C1181.49 1235.96 1179.68 1236.52 1177.68 1236.52ZM1170.56 1224.8H1184.78C1184.69 1223.56 1184.31 1222.43 1183.64 1221.4C1182.99 1220.36 1182.14 1219.53 1181.1 1218.92C1180.06 1218.29 1178.92 1217.98 1177.68 1217.98C1176.44 1217.98 1175.31 1218.29 1174.28 1218.9C1173.26 1219.5 1172.42 1220.32 1171.76 1221.36C1171.11 1222.39 1170.71 1223.53 1170.56 1224.8ZM1207.28 1216H1210.08V1236H1207.28L1207.18 1232.28C1206.52 1233.55 1205.61 1234.57 1204.44 1235.36C1203.26 1236.13 1201.86 1236.52 1200.24 1236.52C1198.77 1236.52 1197.4 1236.25 1196.12 1235.7C1194.84 1235.14 1193.71 1234.37 1192.74 1233.4C1191.76 1232.43 1191 1231.3 1190.46 1230.02C1189.91 1228.74 1189.64 1227.37 1189.64 1225.9C1189.64 1224.46 1189.9 1223.11 1190.44 1221.84C1190.98 1220.57 1191.73 1219.46 1192.68 1218.5C1193.64 1217.54 1194.74 1216.79 1196 1216.26C1197.26 1215.71 1198.62 1215.44 1200.06 1215.44C1201.72 1215.44 1203.18 1215.84 1204.42 1216.64C1205.66 1217.43 1206.64 1218.46 1207.38 1219.74L1207.28 1216ZM1200.18 1233.8C1201.6 1233.8 1202.83 1233.45 1203.86 1232.76C1204.88 1232.05 1205.67 1231.11 1206.22 1229.92C1206.78 1228.73 1207.06 1227.43 1207.06 1226C1207.06 1224.53 1206.78 1223.21 1206.22 1222.04C1205.66 1220.85 1204.86 1219.91 1203.84 1219.22C1202.81 1218.53 1201.59 1218.18 1200.18 1218.18C1198.76 1218.18 1197.47 1218.53 1196.3 1219.24C1195.14 1219.93 1194.21 1220.87 1193.52 1222.06C1192.84 1223.25 1192.5 1224.56 1192.5 1226C1192.5 1227.45 1192.85 1228.77 1193.56 1229.96C1194.26 1231.13 1195.2 1232.07 1196.36 1232.76C1197.53 1233.45 1198.8 1233.8 1200.18 1233.8ZM1214.35 1236V1206H1217.15V1236H1214.35ZM1221.97 1216H1224.77V1236H1221.97V1216ZM1223.39 1212.5C1222.94 1212.5 1222.55 1212.35 1222.23 1212.06C1221.92 1211.75 1221.77 1211.37 1221.77 1210.92C1221.77 1210.47 1221.92 1210.09 1222.23 1209.8C1222.55 1209.49 1222.94 1209.34 1223.39 1209.34C1223.83 1209.34 1224.2 1209.49 1224.51 1209.8C1224.83 1210.09 1224.99 1210.47 1224.99 1210.92C1224.99 1211.37 1224.84 1211.75 1224.53 1212.06C1224.22 1212.35 1223.84 1212.5 1223.39 1212.5ZM1239.81 1218.8H1235.03L1235.01 1236H1232.21L1232.23 1218.8H1228.61V1216H1232.23L1232.21 1209.72H1235.01L1235.03 1216H1239.81V1218.8ZM1256.73 1216H1259.69L1248.75 1246H1245.76L1249.41 1236L1242.23 1216H1245.29L1250.81 1232.14L1256.73 1216Z" fill="#111111"/>
<defs>
<filter id="filter0_f_158_41" x="469" y="988" width="25.9102" height="99" filterUnits="userSpaceOnUse" color-interpolation-filters="sRGB">
<feFlood flood-opacity="0" result="BackgroundImageFix"/>
<feBlend mode="normal" in="SourceGraphic" in2="BackgroundImageFix" result="shape"/>
<feGaussianBlur stdDeviation="5.5" result="effect1_foregroundBlur_158_41"/>
</filter>
<filter id="filter1_f_158_41" x="473" y="1095" width="25.9102" height="65" filterUnits="userSpaceOnUse" color-interpolation-filters="sRGB">
<feFlood flood-opacity="0" result="BackgroundImageFix"/>
<feBlend mode="normal" in="SourceGraphic" in2="BackgroundImageFix" result="shape"/>
<feGaussianBlur stdDeviation="5.5" result="effect1_foregroundBlur_158_41"/>
</filter>
<filter id="filter2_f_158_41" x="500" y="1108" width="25.9102" height="65" filterUnits="userSpaceOnUse" color-interpolation-filters="sRGB">
<feFlood flood-opacity="0" result="BackgroundImageFix"/>
<feBlend mode="normal" in="SourceGraphic" in2="BackgroundImageFix" result="shape"/>
<feGaussianBlur stdDeviation="5.5" result="effect1_foregroundBlur_158_41"/>
</filter>
<filter id="filter3_f_158_41" x="486" y="1023" width="25.9102" height="100" filterUnits="userSpaceOnUse" color-interpolation-filters="sRGB">
<feFlood flood-opacity="0" result="BackgroundImageFix"/>
<feBlend mode="normal" in="SourceGraphic" in2="BackgroundImageFix" result="shape"/>
<feGaussianBlur stdDeviation="5.5" result="effect1_foregroundBlur_158_41"/>
</filter>
<filter id="filter4_f_158_41" x="504" y="988" width="25.9102" height="99" filterUnits="userSpaceOnUse" color-interpolation-filters="sRGB">
<feFlood flood-opacity="0" result="BackgroundImageFix"/>
<feBlend mode="normal" in="SourceGraphic" in2="BackgroundImageFix" result="shape"/>
<feGaussianBlur stdDeviation="5.5" result="effect1_foregroundBlur_158_41"/>
</filter>
<linearGradient id="paint0_linear_158_41" x1="500.603" y1="994.503" x2="500.603" y2="1168" gradientUnits="userSpaceOnUse">
<stop stop-color="#FF0F00"/>
<stop offset="0.432285" stop-color="#FF7A00"/>
<stop offset="1" stop-color="#FFD600"/>
</linearGradient>
</defs>
</svg>
